<?xml version="1.0" standalone="no"?>
<!DOCTYPE svg PUBLIC "-//W3C//DTD SVG 20010904//EN"
 "http://www.w3.org/TR/2001/REC-SVG-20010904/DTD/svg10.dtd">
<svg version="1.0" xmlns="http://www.w3.org/2000/svg"
 width="100.000000pt" height="100.000000pt" viewBox="0 0 100.000000 100.000000"
 preserveAspectRatio="xMidYMid meet">
<metadata>
Created by potrace 1.13, written by Peter Selinger 2001-2015
</metadata>
<g transform="translate(0.000000,100.000000) scale(0.100000,-0.100000)"
fill="#000000" stroke="none">
<path d="M210 902 c0 -18 122 -194 129 -186 21 24 121 177 121 185 0 5 -56 9
-125 9 -69 0 -125 -4 -125 -8z"/>
<path d="M540 903 c0 -8 121 -193 126 -193 7 0 124 179 124 190 0 6 -45 10
-125 10 -69 0 -125 -3 -125 -7z"/>
<path d="M90 799 c-41 -49 -76 -94 -78 -99 -2 -6 51 -10 143 -10 81 0 145 4
143 9 -7 17 -123 191 -128 190 -3 0 -39 -40 -80 -90z"/>
<path d="M435 798 c-33 -50 -61 -95 -63 -99 -2 -5 56 -9 128 -9 72 0 130 4
128 9 -6 17 -123 191 -128 191 -3 0 -32 -41 -65 -92z"/>
<path d="M765 797 c-33 -50 -61 -95 -63 -99 -2 -5 62 -8 143 -8 92 0 145 4
143 10 -4 12 -151 189 -158 189 -3 1 -32 -41 -65 -92z"/>
<path d="M12 651 c7 -20 443 -539 446 -531 3 7 -78 325 -124 488 l-15 52 -155
0 c-86 0 -154 -4 -152 -9z"/>
<path d="M360 653 c-1 -16 135 -533 140 -533 5 0 141 518 140 533 0 9 -280 9
-280 0z"/>
<path d="M676 643 c-27 -91 -136 -517 -134 -524 3 -7 439 512 446 532 2 5 -66
9 -151 9 -140 0 -156 -2 -161 -17z"/>
</g>
</svg>
